# xmcd
#
# Track frame offsets:
#	150
#	22297
#	41279
#	57243
#	75508
#	90645
#	112887
#	129011
#	148323
#	177012
#	200467
#	218807
#	240519
#	256126
#	276898
#	294915
#
# Disc length: 4222 seconds
#
# Revision: 0
# Processed by: cddbd v1.5.1PL2 Copyright (c) Steve Scherf et al.
# Submitted via: dBpowerAMP V4.0
#
DISCID=d8107c10
DTITLE=Eagles - Hell freezes over
DYEAR=1999
DGENRE=Blues
TTITLE0=I can't tell you why
TTITLE1=Witchy woman
TTITLE2=Take it easy
TTITLE3=Hollywood waliz4
TTITLE4=Saturday night
TTITLE5=Wasted time
TTITLE6=Desperado
TTITLE7=Already gone
TTITLE8=Lyin'eyes
TTITLE9=Try and love again
TTITLE10=Love will keep us alive
TTITLE11=Take it to the limit
TTITLE12=Doolin' Dalton
TTITLE13=The best of my love
TTITLE14=Midnight flyer
TTITLE15=After the thrill is gone
EXTD=eagles hell freezes over 1972-1999  CD1
EXTT0=
EXTT1=
EXTT2=
EXTT3=
EXTT4=
EXTT5=
EXTT6=
EXTT7=
EXTT8=
EXTT9=
EXTT10=
EXTT11=
EXTT12=
EXTT13=
EXTT14=
EXTT15=
PLAYORDER=
